<svg width="150" height="93" viewBox="0 0 150 93" fill="none" xmlns="http://www.w3.org/2000/svg">
<path d="M57.6025 0.1549C58.1476 0.152588 58.6649 0.0809182 59.24 0.14334C60.3624 0.353725 61.2724 0.873906 62.0969 1.56286C62.7806 2.1339 63.3787 2.78586 63.9261 3.48406C64.7529 4.54061 65.5127 5.64339 66.2772 6.74618C66.783 7.47443 67.2911 8.20038 67.783 8.93788C67.947 9.18294 68.1225 9.29392 68.4251 9.23381C69.208 9.07428 70.0002 8.95637 70.7785 8.78067C74.0096 8.05704 77.2753 7.56922 80.5664 7.24093C83.4326 6.95425 86.3033 6.86871 89.1787 7.01205C93.0819 7.20394 96.9018 7.8744 100.639 9.01649C103.121 9.77479 105.533 10.7181 107.884 11.8208C110.186 12.9005 112.279 14.3131 114.244 15.9152C117.792 18.8098 120.82 22.1621 123.145 26.1247C124.552 28.5198 125.667 31.0444 126.587 33.6615C126.965 34.7412 127.282 35.844 127.635 36.9329C127.801 37.4461 127.981 37.9571 128.169 38.4634C128.252 38.6876 128.344 38.7246 128.57 38.6715C129.058 38.5536 129.508 38.3432 129.94 38.0981C130.6 37.7236 131.21 37.2751 131.783 36.778C133.753 35.0718 135.543 33.2061 136.913 30.9682C137.522 29.974 138.167 28.9984 138.802 28.0205C139.213 27.3847 139.663 26.779 140.132 26.1825C142.631 23.0036 147.497 23.8197 149.285 27.1743C149.848 28.2331 150.052 29.3683 149.989 30.5589C149.929 31.6941 149.622 32.7714 149.211 33.8234C148.617 35.34 147.823 36.7503 146.936 38.1097C145.539 40.2505 143.95 42.2457 142.199 44.1068C140.102 46.3378 137.624 48.0509 134.899 49.4219C133.681 50.0345 132.434 50.5732 131.132 50.9824C130.617 51.1443 130.118 51.3523 129.61 51.535C129.344 51.6321 129.21 51.787 129.178 52.0991C129.028 53.5394 128.871 54.9797 128.667 56.4131C127.942 61.571 126.734 66.5994 124.653 71.3944C123.298 74.5201 121.614 77.4608 119.593 80.2028C118.358 81.8789 116.949 83.4002 115.399 84.7919C114.787 85.3422 114.147 85.8577 113.429 86.2646C113.237 86.3733 113.152 86.5166 113.143 86.7293C113.12 87.3582 113.027 87.9778 112.859 88.5835C112.736 89.0227 112.568 89.4435 112.323 89.8296C112.076 90.2157 111.764 90.5417 111.385 90.8052C109.242 92.3034 106.477 91.7138 105.14 89.4712C105.085 89.3788 105.025 89.2863 104.983 89.1892C104.595 88.2945 104.558 88.4933 103.807 88.4933C99.507 88.4887 95.2066 88.4933 90.9063 88.5002C90.6938 88.5002 90.4513 88.4286 90.2711 88.5511C90.0864 88.676 90.1141 88.9372 90.0471 89.136C89.5991 90.5139 88.7538 91.5242 87.3588 92.0005C85.2571 92.7172 82.9914 91.7046 82.0699 89.6539C82.0353 89.5753 82.0029 89.4944 81.9706 89.4135C81.8782 89.1707 81.7882 88.9303 81.6981 88.6875C81.4048 88.5835 81.0999 88.639 80.802 88.639C73.6054 88.6505 66.4089 88.6644 59.2123 88.6829C58.2862 88.6852 58.4663 88.5719 58.2377 89.4227C58.0968 89.9452 57.8889 90.4446 57.6072 90.9093C56.8288 92.1901 55.6718 92.842 54.1983 92.9761C53.547 93.0362 52.9049 92.9831 52.2721 92.8143C51.2998 92.5554 50.5838 91.9727 50.0896 91.1035C49.8101 90.611 49.6369 90.077 49.4683 89.5406C49.1265 88.4447 49.3713 88.6459 48.2673 88.6366C44.2048 88.5973 40.1423 88.5719 36.0798 88.5419C36.036 88.5419 35.9944 88.5395 35.9505 88.5419C35.3292 88.5465 35.3616 88.4609 35.156 89.1245C34.8927 89.9845 34.4516 90.7474 33.8003 91.3809C32.8765 92.2756 31.7633 92.6548 30.493 92.5923C27.8648 92.4629 26.0933 90.1001 26.0864 88.1211C26.0864 87.839 26.0587 87.5593 26.0564 87.2772C26.0541 87.0391 25.9756 86.875 25.7423 86.7663C25.4305 86.6207 25.1326 86.4426 24.8346 86.2669C22.6567 84.9861 20.7444 83.3747 19.0238 81.5321C16.0422 78.3417 13.7465 74.7004 11.9866 70.7123C10.6355 67.6514 9.72325 64.4632 9.2267 61.1502C8.57772 56.8154 8.3814 52.4621 8.55462 48.0856C8.72553 43.8224 9.20823 39.5939 9.92419 35.3909C10.1921 33.8141 10.6078 32.2675 10.9912 30.7162C11.2198 29.7937 11.4208 28.8643 11.6333 27.9372C11.6633 27.8101 11.6887 27.6829 11.7072 27.5558C11.7557 27.2136 11.7326 27.1766 11.3861 27.165C10.9542 27.1489 10.5224 27.1396 10.0905 27.1512C8.36062 27.1905 6.63539 27.2899 4.91477 27.454C3.94707 27.5465 2.97706 27.6182 2.00936 27.7037C1.68371 27.7315 1.35806 27.7245 1.04396 27.6297C0.136311 27.3546 -0.147763 26.6634 0.0693351 25.8033C0.136312 25.5398 0.337242 25.3641 0.558959 25.2207C0.889224 25.008 1.25413 24.8762 1.63059 24.7722C2.6976 24.474 3.79233 24.3514 4.89167 24.2613C7.15734 24.0717 9.42532 24.1041 11.6956 24.1202C11.9127 24.1226 12.1275 24.1202 12.3446 24.1272C12.5155 24.1318 12.6333 24.0809 12.6795 23.8983C12.8319 23.2695 12.989 22.6429 13.1483 22.0002C12.6564 21.7921 12.1575 21.7667 11.6725 21.6904C9.79254 21.3922 7.89871 21.2188 6.00488 21.0639C5.44597 21.0177 4.88244 21.0315 4.32122 21.0269C3.78078 21.0223 3.24266 20.9783 2.70684 20.8928C2.27726 20.8235 1.86155 20.7102 1.48509 20.4836C1.01625 20.2015 0.796842 19.7831 0.838414 19.2329C0.879986 18.6919 1.13173 18.2896 1.64445 18.0769C2.13176 17.8734 2.64679 17.8203 3.16644 17.7971C4.03252 17.7578 4.89399 17.8619 5.75314 17.9405C6.80629 18.0376 7.85945 18.1486 8.91029 18.285C9.93804 18.4191 10.9589 18.604 11.9843 18.752C12.6264 18.8444 13.2661 18.9392 13.9174 18.9462C14.0975 18.9485 14.1992 18.8768 14.243 18.7057C14.3724 18.2249 14.4925 17.744 14.638 17.2677C15.474 14.5327 16.6011 11.9156 17.8783 9.36096C18.6427 7.83278 19.4696 6.33928 20.4142 4.91514C20.8206 4.30248 21.2479 3.70369 21.7329 3.15115C22.3519 2.44601 23.0494 1.84029 23.8762 1.39178C25.6222 0.441578 27.3821 0.425394 29.1466 1.34091C29.881 1.72238 30.5231 2.23332 31.1097 2.81361C31.9873 3.68289 32.7795 4.62615 33.5301 5.60409C34.253 6.54735 34.9666 7.49987 35.6595 8.46394C35.8581 8.73905 36.0591 8.85696 36.4032 8.85234C38.2393 8.83153 40.0777 8.83615 41.9138 8.83384C44.2487 8.82922 46.5814 8.82691 48.9163 8.82228C49.0895 8.82228 49.2628 8.81997 49.436 8.81766C49.5515 8.81535 49.6415 8.76448 49.7016 8.66507C49.7916 8.51711 49.8817 8.36915 49.9718 8.22349C50.6231 7.17851 51.2628 6.12427 51.9303 5.09085C52.5169 4.18226 53.1774 3.32454 53.9165 2.53386C54.4939 1.91427 55.1175 1.35016 55.838 0.899337C56.2792 0.621906 56.7457 0.397651 57.2931 0.24044C57.3808 0.219633 57.4201 0.20345 57.4825 0.175707C57.5148 0.175707 57.5748 0.161836 57.6025 0.1549Z" fill="#4E2B0F"/>
<path d="M50.6901 11.8393C51.5561 11.3261 52.1035 10.5817 52.6001 9.78866C52.704 9.62452 52.8079 9.46037 52.9142 9.29622C53.5239 8.35296 54.129 7.40508 54.7456 6.46644C55.2075 5.7613 55.7087 5.08391 56.2653 4.44813C56.524 4.15221 56.8034 3.88634 57.1175 3.65514C57.9166 3.06098 58.7458 3.02399 59.5957 3.53955C60.2516 3.9372 60.7736 4.4805 61.2678 5.05617C62.3833 6.35546 63.321 7.78192 64.254 9.21299C64.619 9.77479 64.9816 10.3366 65.3465 10.9007C65.5474 11.2105 65.7853 11.4879 66.0416 11.7538C66.5821 12.3133 67.2495 12.5029 67.9932 12.3873C68.6745 12.2809 69.3512 12.1329 70.0256 11.985C72.1134 11.5226 74.2082 11.1041 76.3238 10.799C77.4346 10.6394 78.5525 10.5354 79.735 10.4961C80.0814 10.6972 80.0583 11.0163 80.0999 11.3122C80.7235 15.7673 85.5019 18.0307 89.278 15.6193C90.7862 14.6576 91.6938 13.2357 91.9317 11.4278C91.9802 11.0648 91.9825 10.688 92.3243 10.3921C92.74 10.3389 93.098 10.4221 93.4583 10.4776C94.0958 10.5747 94.7332 10.6626 95.4237 10.7643C95.8118 11.3145 95.6593 11.9156 95.6385 12.4797C95.5947 13.749 95.9803 14.8448 96.7032 15.869C99.1259 19.3068 104.503 19.1173 106.669 15.5084C106.78 15.3257 106.856 15.1153 107.119 15.0182C107.41 15.0321 107.627 15.0899 107.838 15.2263C108.346 15.5546 108.865 15.8644 109.387 16.1696C110.567 16.8585 111.614 17.7324 112.676 18.5809C113.671 19.3762 114.628 20.2177 115.528 21.124C116.704 22.3077 117.743 23.6024 118.729 24.9456C120.385 27.2043 121.686 29.6573 122.794 32.2281C123.859 34.6973 124.596 37.2681 125.302 39.8505C125.485 40.5164 125.66 41.1845 125.935 41.8712C126.092 42.0654 126.129 42.2503 126.15 42.4468C126.349 44.412 126.533 46.3794 126.667 48.3492C126.7 48.8254 126.686 49.2947 126.459 49.7964C126.173 50.9501 126.09 52.0713 125.974 53.188C125.801 54.8641 125.702 56.5495 125.443 58.2141C125.247 59.4741 124.944 60.7133 124.628 61.9479C123.949 64.5881 123.101 67.1728 122.06 69.6951C120.9 72.4994 119.51 75.1813 117.764 77.6712C116.78 79.0722 115.678 80.3738 114.436 81.5529C113.665 82.2835 112.81 82.9077 111.979 83.5643C111.554 83.8995 111.129 84.2301 110.697 84.5538C110.343 84.8197 110.159 85.1688 110.143 85.6057C110.129 85.9941 110.136 86.3848 110.136 86.7732C110.136 87.0322 110.131 87.2888 110.078 87.5477C109.953 88.1604 109.533 88.4633 108.976 88.6043C108.609 88.6991 108.295 88.5557 108.05 88.2714C107.879 88.0725 107.757 87.8413 107.674 87.594C107.572 87.2865 107.473 86.9767 107.401 86.6623C107.274 86.0958 106.921 85.756 106.38 85.5988C105.858 85.4462 105.318 85.3907 104.777 85.4485C104.346 85.4924 103.916 85.5063 103.484 85.5063C100.308 85.5063 97.1305 85.5132 93.9549 85.5017C92.6592 85.4971 91.3635 85.4462 90.0679 85.4185C89.6776 85.4092 89.2942 85.4462 88.9085 85.5132C88.1186 85.6496 87.6313 86.0982 87.4489 86.8796C87.405 87.0692 87.3657 87.2587 87.3241 87.4483C87.278 87.6587 87.241 87.8737 87.1833 88.0795C87.1071 88.3523 86.987 88.6112 86.7906 88.8193C86.2594 89.3811 85.7075 89.4019 85.1624 88.8493C84.8506 88.5326 84.6843 88.1326 84.5989 87.7003C84.5481 87.446 84.5065 87.1894 84.4649 86.9351C84.3056 85.9224 83.7836 85.7768 83.1392 85.6705C82.7143 85.6011 82.2801 85.5687 81.8505 85.5664C80.4024 85.5549 78.952 85.5156 77.5086 85.578C74.7648 85.6959 72.0211 85.6496 69.2773 85.6127C67.6999 85.5918 66.1225 85.5525 64.5474 85.5687C62.4087 85.5895 60.2701 85.6404 58.1314 85.6913C57.658 85.7028 57.1845 85.7583 56.7111 85.8069C56.0829 85.8716 55.741 86.1421 55.5563 86.8495C55.4639 87.2056 55.4362 87.5732 55.4177 87.9408C55.3969 88.3754 55.3138 88.8008 55.1036 89.1869C54.8218 89.7071 54.3853 89.9752 53.7872 89.9729C53.1428 89.9683 52.6693 89.6539 52.4476 89.0435C52.2929 88.6158 52.2305 88.165 52.1659 87.7142C52.1197 87.3928 52.0689 87.0738 52.0157 86.7547C51.9234 86.2068 51.6277 85.8508 51.0619 85.7537C50.8702 85.7213 50.6808 85.6704 50.4868 85.6612C49.7524 85.6242 49.0203 85.5826 48.2858 85.5733C46.1241 85.5433 43.9646 85.5525 41.8029 85.4947C40.3779 85.4554 38.9529 85.4208 37.5256 85.4393C36.4471 85.4531 35.3662 85.504 34.2876 85.5502C34.0082 85.5618 33.731 85.6196 33.4539 85.652C32.9365 85.7121 32.6478 86.0427 32.4954 86.5004C32.4007 86.7848 32.3545 87.0853 32.3314 87.3905C32.3083 87.7119 32.2737 88.0379 32.1998 88.3523C31.9065 89.5799 30.6062 89.966 29.6893 89.106C29.3267 88.7661 29.1142 88.3523 29.0796 87.8552C29.0611 87.5755 29.0611 87.2934 29.0588 87.0114C29.0565 86.7085 29.0611 86.4056 29.068 86.1028C29.0796 85.5641 28.8602 85.1387 28.426 84.8289C28.2158 84.6786 27.9918 84.5469 27.7678 84.4151C26.3959 83.5944 25.0448 82.7389 23.7769 81.761C22.2618 80.5935 20.9176 79.2526 19.7282 77.7591C18.2039 75.8448 16.869 73.7988 15.7281 71.6325C14.2777 68.8813 13.2453 65.9798 12.6287 62.9304C12.3423 61.5109 12.1252 60.0821 11.9404 58.6464C11.4693 54.9659 11.4693 51.2714 11.6125 47.577C11.6633 46.2407 11.7857 44.9044 11.9219 43.5727C12.0536 42.2827 12.1968 40.9949 12.3723 39.7118C12.631 37.8276 12.9497 35.955 13.3169 34.0892C14.2823 29.1857 15.5895 24.3746 17.1415 19.6259C17.8275 17.5313 18.5042 15.4321 19.3656 13.4022C20.3564 11.0718 21.4627 8.79916 22.8831 6.69532C23.405 5.92314 23.987 5.20182 24.666 4.5591C24.8069 4.42501 24.9478 4.28861 25.1026 4.1707C25.6869 3.72681 26.3312 3.56035 27.0518 3.77305C27.4491 3.89096 27.8163 4.06898 28.1535 4.30942C28.7563 4.73943 29.2713 5.26193 29.7447 5.82604C30.6917 6.95194 31.5508 8.14489 32.4539 9.30316C33.1028 10.1401 33.7356 10.9885 34.514 11.7746C34.8304 12.2185 34.6895 12.6855 34.7057 13.1271C34.7241 13.6449 34.7033 14.1582 34.9274 14.646C35.2438 15.335 35.8119 15.6864 36.5764 15.6448C37.3316 15.6031 37.8143 15.2332 38.0661 14.5188C38.2808 13.9154 38.2277 13.2866 38.2485 12.6647C38.2601 12.341 38.2554 11.9919 38.7589 11.9318C39.3386 11.9226 39.8675 11.9203 40.4564 11.9249C40.7243 12.2185 40.6735 12.5537 40.6689 12.8728C40.6597 13.4184 40.7243 13.9524 40.9045 14.468C41.1678 15.224 41.7821 15.654 42.5812 15.6517C43.3318 15.6494 43.9162 15.2101 44.1771 14.4564C44.3203 14.0403 44.3319 13.6103 44.3411 13.1756C44.348 12.7918 44.2626 12.3965 44.4797 11.985C45.1194 11.8994 45.7291 11.8902 46.3989 11.9249C46.9832 12.0613 46.9832 12.5075 47.0086 12.9098C47.041 13.386 47.0479 13.86 47.2165 14.3131C47.4983 15.0668 47.9856 15.402 48.7962 15.402C49.6092 15.402 50.0988 15.0622 50.3852 14.32C50.5353 13.9293 50.5584 13.5224 50.5653 13.1109C50.5792 12.6924 50.4984 12.2786 50.6901 11.8393Z" fill="#B4A498"/>
<path d="M92.3313 10.3366C92.2019 10.6348 92.1442 10.9284 92.1165 11.2313C91.9479 13.0623 91.0772 14.5142 89.6314 15.5985C88.6267 16.3522 87.4558 16.7175 86.1878 16.7429C84.9245 16.7707 83.7513 16.4701 82.6843 15.7904C81.9082 15.2933 81.2801 14.6437 80.8158 13.8484C80.31 12.9814 79.9728 12.0543 79.8966 11.0417C79.8851 10.8938 79.8366 10.7458 79.7996 10.5447C80.0652 10.2904 80.3793 10.2534 80.705 10.2487C81.1138 10.2441 81.5179 10.2326 81.9244 10.1493C82.2778 10.0777 82.6542 10.1262 83.0214 10.1146C83.6219 10.0938 84.2293 10.1771 84.8229 10.0037C84.9037 9.98055 84.9938 9.99443 85.0816 9.99443C86.3126 9.99443 87.5459 9.93432 88.7699 10.0152C89.6083 10.0707 90.4443 10.0846 91.2827 10.1308C91.6222 10.1516 91.9571 10.2418 92.3313 10.3366Z" fill="#5B524A"/>
<path d="M107.154 14.9766C107.092 15.1269 107.011 15.2263 106.951 15.3396C105.96 17.2122 104.35 18.1416 102.304 18.4352C100.736 18.6595 99.2969 18.322 98.0151 17.4134C96.7379 16.5094 95.9064 15.2725 95.5323 13.742C95.4699 13.4854 95.4746 13.2288 95.4746 12.9699C95.4722 12.2786 95.4792 11.5873 95.4769 10.836C96.5369 11.0371 97.6086 11.266 98.6594 11.5665C100.417 12.0682 102.154 12.6346 103.81 13.4322C104.662 13.8415 105.553 14.1674 106.426 14.5281C106.685 14.6321 106.96 14.7015 107.154 14.9766Z" fill="#5B524A"/>
<path d="M133.578 39.4644C133.598 39.1963 133.76 39.083 133.917 38.9697C134.494 38.5582 135.042 38.112 135.515 37.5849C135.986 37.0601 136.432 36.5144 136.899 35.985C137.123 35.7307 137.321 35.4417 137.691 35.2937C138.077 35.2452 138.19 35.5642 138.393 35.7238C139.772 36.7942 140.954 38.0634 142.04 39.4714C142.014 39.5777 142.005 39.6494 141.968 39.6933C140.957 40.8863 139.952 42.0885 138.788 43.1381C138.25 43.6236 137.709 44.1114 137.051 44.5137C136.647 44.3056 136.58 43.8941 136.379 43.5727C135.504 42.1671 134.605 40.7846 133.578 39.4644Z" fill="#5B524A"/>
<path d="M126.469 49.8311C126.439 49.4681 126.476 49.082 126.443 48.7006C126.358 47.6741 126.386 46.6406 126.238 45.6188C126.157 45.0454 126.132 44.4651 126.076 43.8895C126.016 43.2699 125.898 42.6549 125.94 41.9683C126.085 41.9058 126.203 41.9613 126.293 42.0607C126.485 42.2757 126.73 42.3012 126.998 42.3104C127.503 42.3289 127.977 42.2411 128.441 42.033C128.91 41.8203 129.406 41.67 129.88 41.4573C130.176 41.3232 130.434 41.129 130.778 41.0019C130.942 41.0227 130.995 41.1175 131.023 41.2215C131.536 43.1381 132.058 45.0547 132.328 47.073C132.243 47.2672 132.132 47.3781 131.995 47.4383C131.624 47.6047 131.245 47.7596 130.864 47.9029C129.917 48.2567 128.949 48.5434 127.968 48.7815C127.843 48.8115 127.718 48.8393 127.598 48.8855C127.122 49.0635 126.714 49.3202 126.469 49.8311Z" fill="#5B524A"/>
<path d="M140.211 31.7819C140.543 30.8156 141.104 30.0249 141.67 29.2388C142.021 28.7533 142.345 28.2447 142.797 27.8309C143.518 27.1697 144.409 27.0263 145.303 27.4494C146.398 27.9673 146.855 28.8944 146.952 30.0318C147.026 30.908 146.76 31.7288 146.46 32.5426C146.107 33.4997 145.55 34.3482 145.047 35.2683C144.917 35.3215 144.839 35.2937 144.779 35.2267C143.615 33.8973 142.049 33.1113 140.612 32.1495C140.472 32.0547 140.319 31.9738 140.211 31.7819Z" fill="#5A5249"/>
<path d="M140.162 31.7542C141.472 32.427 142.636 33.2778 143.827 34.0892C144.271 34.3898 144.652 34.7805 144.975 35.2706C144.977 35.3955 144.964 35.5064 144.913 35.5943C144.178 36.8497 143.34 38.038 142.462 39.1963C142.372 39.3165 142.273 39.4298 142.084 39.5014C141.545 39.0298 141.058 38.5443 140.622 38.0033C140.187 37.467 139.677 36.9999 139.146 36.5537C138.684 36.1677 138.192 35.8116 137.776 35.3099C137.732 35.1111 137.769 34.9562 137.896 34.8175C138.374 34.2927 138.723 33.6754 139.111 33.0859C139.414 32.6281 139.686 32.138 140.162 31.7542Z" fill="#B2A296"/>
<path d="M132.358 47.1238C132.035 46.5042 131.898 45.8453 131.811 45.1864C131.707 44.412 131.492 43.6698 131.28 42.9231C131.109 42.322 130.924 41.7232 130.838 41.0458C130.91 40.9348 130.991 40.8655 131.088 40.8239C131.843 40.5071 132.543 40.1002 133.157 39.5523C133.256 39.4621 133.363 39.3997 133.55 39.4205C134.139 39.8344 134.478 40.4146 134.855 40.9603C135.393 41.7394 135.892 42.5462 136.411 43.3392C136.638 43.6837 136.816 44.0513 136.989 44.4744C136.938 44.5992 136.88 44.6963 136.797 44.7564C135.619 45.5818 134.43 46.3886 133.088 46.9366C132.868 47.0267 132.656 47.14 132.358 47.1238Z" fill="#B2A396"/>
<path d="M38.7751 11.881C38.7843 11.9457 38.7589 11.9919 38.722 12.0012C38.4933 12.0613 38.4264 12.2092 38.431 12.4358C38.4402 12.8242 38.4287 13.2126 38.4217 13.601C38.4125 13.9917 38.3224 14.3686 38.1838 14.7339C37.9159 15.4459 37.3709 15.7627 36.6434 15.8158C36.3154 15.839 35.999 15.7881 35.6918 15.6748C35.3339 15.543 35.0567 15.3165 34.8789 14.9743C34.6872 14.6067 34.5463 14.2229 34.5394 13.8045C34.5278 13.1779 34.5255 12.5537 34.5301 11.8671C34.8789 11.8139 35.2138 11.8301 35.5556 11.8948C36.036 11.9873 36.5418 11.9873 37.0221 11.8971C37.5949 11.7862 38.1608 11.7931 38.7751 11.881Z" fill="#5C534B"/>
<path d="M44.4543 11.9341C44.5166 12.4312 44.5143 12.9282 44.5259 13.4253C44.5328 13.7767 44.4727 14.1143 44.3757 14.4472C44.0362 15.6031 43.0616 15.973 42.117 15.7788C41.4264 15.6378 40.9622 15.224 40.7428 14.5466C40.6019 14.1143 40.4911 13.6773 40.5049 13.2149C40.5165 12.8265 40.5142 12.4381 40.5211 11.9873C41.8145 11.9272 43.1032 11.9295 44.4543 11.9341Z" fill="#5C534B"/>
<path d="M50.6623 11.7954C50.7824 12.415 50.7801 13.0415 50.7178 13.6611C50.6647 14.2183 50.5215 14.7616 50.0711 15.1639C49.9071 15.3095 49.7316 15.4182 49.5214 15.4852C49.078 15.6216 48.6299 15.6124 48.1865 15.5153C47.7385 15.4159 47.4267 15.1338 47.2119 14.7362C46.974 14.2923 46.8793 13.8114 46.8493 13.312C46.8308 12.9699 46.8539 12.6254 46.7569 12.2878C46.7176 12.1491 46.6345 12.0682 46.4959 11.9572C46.5652 11.807 46.7038 11.7908 46.8239 11.8347C47.1795 11.9642 47.5468 11.9318 47.9094 11.9364C48.1472 11.9411 48.3828 11.9364 48.6207 11.9411C49.2882 11.9503 49.9533 11.9341 50.6623 11.7954Z" fill="#5C534B"/>
<path d="M75.0881 17.4966C75.9542 17.3694 76.7649 17.2562 77.5732 17.129C78.2568 17.0227 78.9428 16.9649 79.6357 16.981C79.9174 16.988 80.1923 17.025 80.4532 17.1452C80.7881 17.3001 80.9983 17.5475 81.0976 17.9081C81.3355 18.7728 80.959 19.5057 80.0929 19.7993C79.5594 19.9796 78.9959 20.0282 78.4393 20.0906C75.52 20.4258 72.6423 20.9622 69.8432 21.8708C69.5152 21.9771 69.1826 22.0834 68.8454 22.1389C68.1272 22.2592 67.4874 21.9031 67.2057 21.2627C66.9354 20.6477 67.0786 19.9981 67.5867 19.5588C67.8523 19.3276 68.1687 19.1843 68.499 19.0849C70.379 18.5254 72.2613 17.9705 74.2013 17.6446C74.4784 17.596 74.7556 17.5498 75.0881 17.4966Z" fill="#4E2B0F"/>
<path d="M76.1274 26.7258C75.0327 26.6911 73.998 26.6518 72.9634 26.631C72.5754 26.6241 72.1874 26.6587 71.7993 26.6726C70.8917 26.7073 69.9887 26.6333 69.0833 26.5917C68.9979 26.5871 68.9101 26.5801 68.827 26.5616C68.3327 26.453 67.9355 26.201 67.7761 25.7039C67.6098 25.1791 67.6883 24.682 68.0694 24.252C68.4043 23.8752 68.8362 23.6972 69.3212 23.644C69.8131 23.5885 70.3097 23.54 70.8039 23.5261C72.6169 23.4752 74.4253 23.5631 76.2314 23.7203C77.3492 23.8174 78.4624 23.9399 79.5641 24.1503C79.9451 24.2243 80.3193 24.3283 80.6911 24.4393C81.0075 24.5341 81.2777 24.7121 81.4879 24.971C81.8574 25.4311 81.9429 25.9397 81.7143 26.4877C81.4856 27.0379 81.0699 27.3408 80.4694 27.3592C79.9059 27.3777 79.3539 27.2645 78.8019 27.1674C78.1021 27.0448 77.4046 26.9084 76.7048 26.7813C76.5339 26.7535 76.3607 26.7466 76.1274 26.7258Z" fill="#4E2B0F"/>
<path d="M41.0523 24.2428C41.0846 23.755 41.0962 23.3226 41.1424 22.8926C41.2348 22.0488 42.0616 21.4292 42.8999 21.5656C43.3388 21.6372 43.6344 21.9147 43.8399 22.2892C44.0501 22.6753 44.1402 23.0938 44.1471 23.533C44.154 23.9422 44.1263 24.3537 44.2256 24.7583C44.2418 24.8208 44.2395 24.8878 44.2557 24.9502C44.3642 25.4195 44.5836 25.5652 45.0524 25.4403C45.3435 25.3617 45.6183 25.2369 45.9024 25.1352C46.2396 25.015 46.5744 25.0103 46.9139 25.1398C47.4359 25.3386 47.7038 25.7293 47.7477 26.268C47.8054 26.9708 47.526 27.5326 46.9671 27.9511C46.489 28.3071 45.9416 28.4944 45.3481 28.5453C44.6483 28.6054 43.9716 28.499 43.3203 28.2378C43.2002 28.1892 43.0824 28.1384 42.9646 28.0806C42.6921 27.9488 42.438 27.958 42.1655 28.106C41.4842 28.4782 40.7451 28.6007 39.9761 28.5453C39.3155 28.499 38.7127 28.2933 38.1815 27.8864C37.8813 27.6575 37.6573 27.3731 37.5233 27.024C37.2993 26.4391 37.4125 25.9074 37.8443 25.4704C38.2762 25.0358 38.8144 24.934 39.3987 25.1213C39.5419 25.1675 39.6712 25.2531 39.8098 25.3109C39.9276 25.3594 40.05 25.4103 40.1747 25.4311C40.6089 25.5074 40.7405 25.4219 40.9045 24.9965C40.99 24.7722 41.0384 24.541 41.0523 24.2428Z" fill="#4D2B0F"/>
<path d="M27.7747 21.7528C28.4791 21.4847 29.1443 21.3529 29.8464 21.5425C30.3383 21.6742 30.7748 21.9077 31.1189 22.2776C32.0497 23.2787 32.3892 24.9502 31.5508 26.2981C31.0727 27.0656 30.3406 27.4587 29.4791 27.602C27.9248 27.8609 26.3867 26.8599 26.0356 25.3271C25.7261 23.9723 26.1465 22.8325 27.3313 21.991C27.456 21.9054 27.5969 21.8476 27.7747 21.7528Z" fill="#4D2B0E"/>
<path d="M58.5171 22.4626C59.0067 23.0822 59.2331 23.7642 59.2469 24.4855C59.2793 25.9628 58.494 27.4332 56.5494 27.6274C54.6879 27.8124 53.2514 26.4738 53.2052 24.5896C53.1774 23.4544 53.7502 22.0418 55.4824 21.5979C56.6395 21.2997 57.6649 21.4985 58.5171 22.4626Z" fill="#4D2B0E"/>
</svg>
