<svg width="150" height="150" viewBox="0 0 150 150" fill="none" xmlns="http://www.w3.org/2000/svg">
<path d="M80.7468 33.4861C80.8863 33.4728 81.0391 33.4861 81.1686 33.4396C85.1643 31.8922 89.2994 30.9126 93.5608 30.5141C96.4504 30.2418 99.3434 30.2418 102.236 30.524C106.717 30.9624 111.041 32.015 115.213 33.6953C119.232 35.3158 122.959 37.4511 126.41 40.0711C131.538 43.9663 135.846 48.6253 139.41 53.9849C143.103 59.5405 145.787 65.5576 147.564 71.9832C149.613 79.405 150.34 86.9563 149.855 94.6371C149.4 101.853 147.839 108.813 145.129 115.511C143.056 120.632 140.333 125.39 136.948 129.76C131.99 136.166 126.011 141.363 118.737 145.012C114.761 147.008 110.583 148.403 106.212 149.22C102.386 149.937 98.5263 150.166 94.6469 149.881C87.9775 149.386 81.6735 147.583 75.7913 144.381C75.2001 144.059 74.7683 144.086 74.2003 144.395C70.022 146.689 65.568 148.247 60.8981 149.15C56.4474 150.01 51.9601 150.216 47.443 149.744C39.3454 148.898 31.9719 146.088 25.2959 141.483C19.4867 137.474 14.7039 132.43 10.7713 126.572C6.92182 120.838 4.15508 114.618 2.34492 107.963C1.39167 104.46 0.737349 100.9 0.378637 97.2871C0.249102 95.992 0.169392 94.6936 0.0298927 93.3786C-0.00996423 91.2766 -0.00996423 89.1912 0.0298927 87.0393C0.219213 83.805 0.587886 80.6602 1.16249 77.5354C2.15559 72.1393 3.80634 66.949 6.11804 61.9746C8.6722 56.4821 11.9704 51.4778 16.0457 46.9882C19.4336 43.2523 23.2399 40.008 27.5312 37.368C33.7289 33.5525 40.4548 31.2446 47.7154 30.5307C51.6579 30.1422 55.5805 30.2849 59.4865 30.9092C63.5353 31.5568 67.4313 32.7257 71.1745 34.4026C71.3273 34.4724 71.4834 34.5288 71.6993 34.6152C71.6993 34.1702 71.6893 33.8115 71.7026 33.4562C71.8122 30.3314 72.1477 27.2332 72.8684 24.1815C74.3265 18.0149 76.9438 12.4427 81.2882 7.75055C84.3871 4.40327 88.0107 1.80315 92.2024 0C92.5312 0 92.86 0 93.232 0C94.3845 0.255695 95.1252 1.03274 95.8327 1.83636C98.5429 4.92462 100.725 8.36157 102.512 12.0509C103.329 13.7378 102.665 15.4978 100.964 16.2848C98.9913 17.198 96.952 18.0016 95.0654 19.0742C89.5253 22.2189 84.9451 26.4097 81.6137 31.8889C81.3114 32.387 81.0524 32.915 80.7501 33.4728C80.7335 33.5359 80.7435 33.5559 80.7535 33.5758C80.7634 33.5691 80.7833 33.5592 80.7833 33.5559C80.7667 33.5293 80.7534 33.506 80.7468 33.4861ZM79.7936 63.9238C77.7609 64.5913 76.3493 63.9404 75.5189 61.9613C74.0409 58.448 73.1042 54.7852 72.5629 51.0228C72.1377 48.0574 71.9251 45.0721 71.9849 42.0735C71.9916 41.7879 71.9384 41.6186 71.6528 41.4625C66.4481 38.6366 60.9047 36.9563 54.9893 36.5312C50.9006 36.2357 46.8551 36.581 42.8794 37.5374C35.1405 39.4003 28.5143 43.2988 22.8181 48.7946C18.301 53.1547 14.7404 58.2155 12.0135 63.8707C8.82499 70.4789 6.99157 77.4491 6.34389 84.7447C6.07486 87.7633 6.03168 90.7884 6.22764 93.8136C6.4535 97.307 6.90189 100.767 7.70235 104.181C9.10066 110.148 11.316 115.787 14.5079 121.027C19.2443 128.807 25.4719 135.044 33.5927 139.288C37.8541 141.516 42.3812 142.94 47.1541 143.548C50.1168 143.927 53.0894 143.94 56.0687 143.668C59.5396 143.349 62.8942 142.535 66.1625 141.346C68.7399 140.407 71.1645 139.158 73.536 137.79C74.4959 137.235 75.499 137.262 76.4688 137.79C77.3556 138.271 78.2126 138.806 79.1094 139.264C83.9719 141.748 89.1068 143.306 94.5639 143.737C99.6124 144.136 104.578 143.631 109.421 142.147C114.914 140.46 119.856 137.733 124.294 134.077C129.07 130.139 132.953 125.45 136.048 120.107C139.014 114.99 141.11 109.524 142.392 103.753C143.634 98.1505 144.113 92.4754 143.781 86.7438C143.565 83.0379 143.076 79.3685 142.203 75.7555C140.376 68.2175 137.271 61.2772 132.634 55.0376C128.894 50.0034 124.403 45.7794 119.046 42.5052C112.878 38.7362 106.179 36.7039 98.9515 36.4648C95.0255 36.3353 91.1661 36.8234 87.3332 37.8495C87.5125 37.9126 87.6587 37.9724 87.8115 38.0189C91.196 39.1147 94.4642 40.4629 97.5332 42.2761C103.525 45.8193 108.019 50.7107 110.899 57.0632C112.808 61.2739 113.921 65.7037 114.476 70.283C114.921 73.959 115.04 77.6384 114.761 81.3377C114.599 83.4828 113.077 84.6617 111.377 84.5123C109.597 84.3562 107.813 84.1636 106.056 83.8481C100.416 82.8353 95.0222 81.0786 90.0102 78.2527C89.3459 77.8775 88.685 77.4856 88.0506 77.0639C86.4895 76.0245 86.1806 74.2911 87.28 72.5411C88.4591 71.2394 89.9338 71.0268 91.4484 71.9799C93.4379 73.2318 95.5204 74.3011 97.7026 75.1644C100.748 76.3699 103.894 77.2366 107.119 77.8144C107.654 77.9107 108.195 77.9738 108.783 78.0601C108.783 77.8243 108.793 77.6616 108.783 77.5022C108.63 75.201 108.55 72.8931 108.308 70.6018C107.956 67.2578 107.129 64.0201 105.87 60.8953C104.737 58.0827 103.246 55.4759 101.257 53.1813C98.9249 50.4982 96.1316 48.3895 92.9862 46.7391C89.4954 44.9061 85.802 43.6209 81.9558 42.7808C80.707 42.5085 79.4481 42.2927 78.1196 42.037C78.1196 42.2993 78.1229 42.472 78.1196 42.648C78.0764 45.3378 78.3288 48.0043 78.7207 50.6609C79.1592 53.613 79.9165 56.4821 81.0192 59.2582C81.2218 59.7696 81.4576 60.2943 81.5107 60.8289C81.6502 62.1904 81.0158 63.1966 79.7936 63.9238ZM79.3485 23.5372C79.2621 23.8826 79.1725 24.228 79.0861 24.5733C83.6032 19.0842 89.0869 14.9067 95.5935 11.8716C94.4111 10.1448 93.2752 8.49439 92.1459 6.84732C90.2826 7.89667 88.6883 9.06888 87.2236 10.4171C83.3342 14.0035 80.8464 18.43 79.3485 23.5372ZM79.0662 24.746L79.0462 24.7294C79.0462 24.7294 79.0496 24.7626 79.0662 24.746Z" fill="#010101"/>
<path d="M87.2236 72.5643C86.1806 74.2811 86.4895 76.0146 88.0473 77.0539C88.6817 77.479 89.3426 77.8675 90.0069 78.2428C95.0189 81.0687 100.41 82.8287 106.053 83.8382C107.81 84.1536 109.593 84.3462 111.374 84.5023C113.074 84.6517 114.595 83.4729 114.758 81.3277C115.037 77.6284 114.917 73.9491 114.472 70.273C113.918 65.6938 112.805 61.2639 110.895 57.0533C108.016 50.704 103.522 45.8093 97.5299 42.2661C94.4609 40.4497 91.1893 39.1014 87.8081 38.0089C87.6587 37.9591 87.5092 37.9027 87.3298 37.8396C91.1627 36.8135 95.0256 36.3253 98.9481 36.4548C106.176 36.6939 112.875 38.7262 119.043 42.4952C124.4 45.7695 128.891 49.9934 132.631 55.0276C137.267 61.2672 140.373 68.2075 142.2 75.7456C143.076 79.3585 143.565 83.0279 143.777 86.7338C144.109 92.4687 143.631 98.1405 142.389 103.743C141.11 109.514 139.011 114.98 136.045 120.097C132.949 125.44 129.067 130.126 124.29 134.067C119.853 137.727 114.914 140.45 109.417 142.137C104.575 143.624 99.6124 144.129 94.5605 143.727C89.1035 143.296 83.9686 141.738 79.106 139.254C78.2092 138.796 77.349 138.261 76.4655 137.78C75.4923 137.252 74.4893 137.225 73.5327 137.78C71.1612 139.148 68.7366 140.4 66.1592 141.336C62.8909 142.529 59.5396 143.339 56.0654 143.658C53.0861 143.93 50.1134 143.917 47.1507 143.538C42.3779 142.93 37.8508 141.502 33.5894 139.278C25.4686 135.037 19.2443 128.797 14.5046 121.017C11.3127 115.777 9.10066 110.138 7.69903 104.171C6.89857 100.761 6.45018 97.297 6.22432 93.8036C6.02836 90.7785 6.07486 87.7533 6.34057 84.7348C6.98825 77.4425 8.82166 70.4723 12.0102 63.8607C14.7371 58.2055 18.2977 53.1414 22.8148 48.7847C28.511 43.2889 35.1372 39.3904 42.8761 37.5274C46.8518 36.5711 50.8973 36.229 54.9859 36.5213C60.9014 36.9463 66.4415 38.6266 71.6495 41.4525C71.9351 41.6086 71.9849 41.778 71.9816 42.0635C71.9218 45.0621 72.1344 48.0475 72.5595 51.0129C73.1009 54.7752 74.0376 58.438 75.5156 61.9513C76.3459 63.9305 77.7575 64.5813 79.8334 63.9437C80.1357 64.4385 80.4014 64.9067 80.6605 65.3716C80.8631 65.7369 81.059 66.1055 81.2351 66.4974C79.4415 68.0083 79.8766 71.0999 82.4308 71.8172C83.58 72.1393 84.5698 71.7408 85.4532 71.0136C86.0544 71.5582 86.639 72.0596 87.2236 72.5643ZM35.2933 49.9004C31.7228 51.853 28.5575 54.3236 25.7575 57.2757C21.1939 62.0908 17.9389 67.6862 15.7999 73.9424C14.5611 77.572 13.744 81.3011 13.4052 85.12C13.2524 86.85 13.1827 88.5934 13.1827 90.3335C13.1827 91.7514 14.3784 93.0133 15.6903 93.1661C17.3577 93.3587 18.7361 92.5019 19.1247 90.9644C19.2575 90.4364 19.2808 89.8719 19.2907 89.324C19.3406 86.2224 19.7059 83.1641 20.4001 80.1422C21.8084 74.0088 24.3991 68.4367 28.3814 63.5419C31.1017 60.198 34.3102 57.4351 38.0899 55.3398C40.1492 54.1974 42.3347 53.3772 44.56 52.6301C45.9982 52.1452 46.7953 50.4151 46.347 48.9573C45.882 47.4497 44.3408 46.49 42.8462 46.852C40.2024 47.4863 37.7412 48.5788 35.2933 49.9004ZM49.396 47.2206C48.7915 48.6319 49.107 50.0598 50.2297 50.9664C51.2992 51.8264 52.847 51.8763 53.9563 51.0826C55.0989 50.2657 55.5639 48.8478 55.069 47.5361C54.6139 46.3307 53.7039 45.6399 52.4251 45.5337C51.1032 45.4274 50.1002 46.0119 49.396 47.2206Z" fill="#4BDD6B"/>
<path d="M81.2616 66.4841C81.0623 66.1155 80.8664 65.7502 80.6638 65.3816C80.4047 64.9134 80.139 64.4485 79.8766 63.9437C81.0192 63.1933 81.6535 62.1871 81.514 60.8223C81.4576 60.2876 81.2251 59.7596 81.0225 59.2516C79.9198 56.4754 79.1625 53.6063 78.7241 50.6542C78.3288 47.9977 78.0797 45.3311 78.1229 42.6413C78.1262 42.4687 78.1229 42.2927 78.1229 42.0303C79.4515 42.286 80.7103 42.4985 81.9591 42.7742C85.8053 43.6143 89.4954 44.9027 92.9895 46.7325C96.1316 48.3829 98.9282 50.4882 101.26 53.1747C103.249 55.4693 104.741 58.0727 105.873 60.8887C107.132 64.0135 107.959 67.2512 108.311 70.5951C108.554 72.8864 108.637 75.1943 108.786 77.4956C108.796 77.655 108.786 77.8144 108.786 78.0535C108.195 77.9671 107.657 77.9007 107.122 77.8077C103.897 77.2333 100.752 76.3632 97.7059 75.1578C95.5238 74.2944 93.4412 73.2251 91.4517 71.9732C89.9372 71.0202 88.4658 71.2327 87.2568 72.551C86.6423 72.0662 86.0577 71.5615 85.4698 70.9969C86.536 69.5989 86.5095 67.8755 85.4134 66.7365C84.3671 65.644 82.5736 65.4314 81.2616 66.4841Z" fill="#00AF31"/>
<path d="M79.3585 23.5007C80.8464 18.43 83.3342 14.0035 87.2169 10.4204C88.6817 9.0722 90.2759 7.89999 92.1392 6.85064C93.2685 8.49772 94.4044 10.1514 95.5869 11.8749C89.0835 14.91 83.5966 19.0875 79.0795 24.5766C79.1725 24.2313 79.2588 23.8859 79.3585 23.5007Z" fill="#EB722F"/>
<path d="M79.0562 24.7526C79.0462 24.7626 79.0462 24.7294 79.0462 24.7294C79.0462 24.7294 79.0662 24.746 79.0562 24.7526Z" fill="#EB722F"/>
<path d="M35.3265 49.8838C37.7412 48.5788 40.2024 47.4829 42.8462 46.8487C44.3408 46.49 45.882 47.4497 46.347 48.954C46.7987 50.4118 46.0015 52.1452 44.56 52.6267C42.3347 53.3739 40.1492 54.1941 38.0899 55.3364C34.3135 57.4318 31.1017 60.1947 28.3814 63.5386C24.3991 68.4334 21.8084 74.0055 20.4001 80.1389C19.7059 83.1607 19.3406 86.2191 19.2907 89.3207C19.2808 89.8686 19.2575 90.4331 19.1247 90.9611C18.7361 92.4986 17.361 93.3553 15.6903 93.1627C14.3784 93.01 13.1827 91.7481 13.1827 90.3302C13.1827 88.5934 13.2524 86.8467 13.4052 85.1166C13.744 81.2978 14.5611 77.5686 15.7999 73.9391C17.9389 67.6829 21.1939 62.0875 25.7575 57.2724C28.5575 54.3236 31.7261 51.8563 35.3265 49.8838Z" fill="#000100"/>
<path d="M49.4126 47.1874C50.1002 46.0119 51.1032 45.4274 52.4251 45.5337C53.7039 45.6366 54.6139 46.3273 55.069 47.5361C55.5639 48.8444 55.0989 50.2657 53.9563 51.0826C52.847 51.8763 51.2992 51.8264 50.2297 50.9664C49.107 50.0598 48.7915 48.6319 49.4126 47.1874Z" fill="#010201"/>
<path d="M81.2351 66.5073C82.5703 65.4314 84.3638 65.644 85.4067 66.7298C86.5028 67.8722 86.5261 69.5956 85.4499 70.9604C84.5664 71.7508 83.58 72.1492 82.4308 71.8238C79.8799 71.1099 79.4448 68.0183 81.2351 66.5073Z" fill="#000101"/>
</svg>
